<svg width="667" height="230" viewBox="0 0 667 230" fill="none" xmlns="http://www.w3.org/2000/svg">
<path d="M67.2179 89.2902L33.9736 122.535L100.462 122.535L100.462 89.2902L67.2179 89.2902Z" fill="#33E99D"/>
<path d="M33.9767 44.3683L0.73242 77.6126L100.465 77.6126L100.465 44.3683L33.9767 44.3683Z" fill="#33E99D"/>
<path d="M0.733401 155.78L33.9777 122.535L33.9777 171.453L0.733404 171.453L0.733401 155.78Z" fill="#33E99D"/>
<path d="M639.538 120.177L639.232 125.379C634.539 125.787 630.357 126.399 626.684 127.216C623.012 127.93 619.799 128.899 617.044 130.123C614.392 131.347 612.148 132.775 610.312 134.407C608.475 136.04 607.149 137.927 606.333 140.069C605.517 142.211 605.109 144.609 605.109 147.261C605.109 150.525 605.568 153.228 606.486 155.371C607.506 157.411 608.934 158.992 610.771 160.114C612.709 161.134 614.902 161.644 617.35 161.644C620.615 161.644 623.42 160.93 625.766 159.502C628.215 158.074 630.357 156.136 632.193 153.688C634.029 151.239 635.661 148.434 637.09 145.272L639.997 147.108C638.467 151.494 636.375 155.32 633.723 158.584C631.173 161.746 628.062 164.195 624.389 165.929C620.717 167.663 616.534 168.53 611.842 168.53C607.251 168.53 603.12 167.714 599.447 166.082C595.775 164.45 592.868 162.103 590.725 159.043C588.685 155.881 587.665 152.157 587.665 147.873C587.665 143.69 588.736 140.069 590.878 137.009C593.123 133.948 596.438 131.347 600.824 129.205C605.211 127.063 610.618 125.277 617.044 123.849C623.573 122.421 631.071 121.197 639.538 120.177ZM636.63 167V152.157L635.253 152.616V109.16C635.253 104.875 634.743 101.458 633.723 98.9074C632.703 96.3572 631.071 94.47 628.827 93.2458C626.582 92.0217 623.777 91.4096 620.411 91.4096C615.514 91.4096 611.434 92.4297 608.169 94.47C605.007 96.5102 602.457 98.9584 600.518 101.815C600.722 100.183 600.978 98.7544 601.284 97.5303C601.692 96.3062 602.202 95.286 602.814 94.47C603.528 93.6539 604.293 93.0418 605.109 92.6338C606.027 92.2257 606.945 92.0217 607.863 92.0217V109.772H592.868V95.082C594.296 93.9599 596.336 92.7358 598.988 91.4096C601.743 89.9815 605.058 88.7573 608.934 87.7372C612.913 86.6151 617.401 86.054 622.4 86.054C626.99 86.054 631.173 86.5641 634.947 87.5842C638.824 88.6043 642.139 90.1345 644.893 92.1747C647.648 94.2149 649.739 96.8672 651.167 100.132C652.697 103.294 653.462 107.068 653.462 111.455V156.901C653.462 158.227 653.87 159.298 654.686 160.114C655.605 160.828 656.778 161.338 658.206 161.644C659.736 161.848 661.47 162.001 663.408 162.103H663.868V167H636.63Z" fill="white"/>
<path d="M581.838 86.6661V103.039C581.124 102.835 580.308 102.682 579.39 102.58C578.471 102.376 577.4 102.223 576.176 102.121C575.054 101.917 573.932 101.815 572.81 101.815C570.464 101.815 568.321 102.121 566.383 102.733C564.547 103.345 562.813 104.263 561.181 105.487C559.65 106.711 558.222 108.292 556.896 110.231C555.672 112.169 554.499 114.464 553.377 117.116L552 112.373C553.938 107.17 556.08 102.631 558.426 98.7544C560.772 94.776 563.476 91.7156 566.536 89.5734C569.596 87.3292 573.014 86.207 576.788 86.207C577.91 86.207 578.879 86.258 579.696 86.36C580.614 86.36 581.328 86.4621 581.838 86.6661ZM526.14 167V162.103H526.293C529.251 162.103 531.75 161.797 533.79 161.185C535.831 160.471 536.851 159.094 536.851 157.054V99.0605C536.851 97.6323 536.494 96.5612 535.78 95.8471C535.168 95.031 534.199 94.4189 532.872 94.0109C531.546 93.5008 529.812 93.0928 527.67 92.7868L526.14 92.4807V87.5842H553.836V110.078L555.213 109.007V160.726C555.213 161.032 555.723 161.287 556.743 161.491C557.763 161.593 559.089 161.746 560.721 161.95C562.354 162.052 564.088 162.103 565.924 162.103H568.831V167H526.14Z" fill="white"/>
<path d="M496.64 120.177L496.334 125.379C491.642 125.787 487.459 126.399 483.787 127.216C480.115 127.93 476.901 128.899 474.147 130.123C471.495 131.347 469.25 132.775 467.414 134.407C465.578 136.04 464.252 137.927 463.436 140.069C462.62 142.211 462.212 144.609 462.212 147.261C462.212 150.525 462.671 153.228 463.589 155.371C464.609 157.411 466.037 158.992 467.873 160.114C469.811 161.134 472.005 161.644 474.453 161.644C477.717 161.644 480.523 160.93 482.869 159.502C485.317 158.074 487.459 156.136 489.296 153.688C491.132 151.239 492.764 148.434 494.192 145.272L497.099 147.108C495.569 151.494 493.478 155.32 490.826 158.584C488.275 161.746 485.164 164.195 481.492 165.929C477.819 167.663 473.637 168.53 468.944 168.53C464.354 168.53 460.222 167.714 456.55 166.082C452.877 164.45 449.97 162.103 447.828 159.043C445.788 155.881 444.768 152.157 444.768 147.873C444.768 143.69 445.839 140.069 447.981 137.009C450.225 133.948 453.541 131.347 457.927 129.205C462.314 127.063 467.72 125.277 474.147 123.849C480.676 122.421 488.173 121.197 496.64 120.177ZM493.733 167V152.157L492.356 152.616V109.16C492.356 104.875 491.846 101.458 490.826 98.9074C489.806 96.3572 488.173 94.47 485.929 93.2458C483.685 92.0217 480.88 91.4096 477.513 91.4096C472.617 91.4096 468.536 92.4297 465.272 94.47C462.109 96.5102 459.559 98.9584 457.621 101.815C457.825 100.183 458.08 98.7544 458.386 97.5303C458.794 96.3062 459.304 95.286 459.916 94.47C460.63 93.6539 461.395 93.0418 462.212 92.6338C463.13 92.2257 464.048 92.0217 464.966 92.0217V109.772H449.97V95.082C451.398 93.9599 453.439 92.7358 456.091 91.4096C458.845 89.9815 462.161 88.7573 466.037 87.7372C470.015 86.6151 474.504 86.054 479.502 86.054C484.093 86.054 488.275 86.5641 492.05 87.5842C495.926 88.6043 499.242 90.1345 501.996 92.1747C504.75 94.2149 506.841 96.8672 508.27 100.132C509.8 103.294 510.565 107.068 510.565 111.455V156.901C510.565 158.227 510.973 159.298 511.789 160.114C512.707 160.828 513.88 161.338 515.308 161.644C516.839 161.848 518.573 162.001 520.511 162.103H520.97V167H493.733Z" fill="white"/>
<path d="M387.817 92.9398V88.0432H388.123C391.184 88.0432 393.734 87.7372 395.774 87.1251C397.814 86.411 399.396 85.2889 400.518 83.7587C401.742 82.2286 402.456 80.1883 402.66 77.6381L407.557 87.5842H437.395V92.9398H387.817ZM417.503 145.884C417.503 149.964 417.962 153.228 418.88 155.677C419.9 158.125 421.328 159.859 423.164 160.879C425 161.899 427.092 162.409 429.438 162.409C431.886 162.409 433.977 162.103 435.712 161.491C437.548 160.777 438.721 160.369 439.231 160.267V165.776C438.415 166.286 437.242 166.745 435.712 167.153C434.284 167.561 432.702 167.867 430.968 168.071C429.336 168.377 427.5 168.53 425.46 168.53C420.461 168.53 415.922 167.765 411.841 166.235C407.863 164.603 404.751 162.001 402.507 158.431C400.263 154.861 399.141 150.117 399.141 144.2V87.7372L401.742 86.9721L403.731 67.5389H417.503V145.884Z" fill="white"/>
<path d="M295.448 167V162.103H295.601C297.539 162.103 299.274 162.001 300.804 161.797C302.436 161.491 303.711 160.981 304.629 160.267C305.649 159.451 306.159 158.38 306.159 157.054V99.0605C306.159 97.6323 305.802 96.5612 305.088 95.8471C304.476 95.031 303.507 94.4189 302.181 94.0109C300.855 93.5008 299.121 93.0928 296.978 92.7868L295.448 92.4807V87.5842H323.144V103.804L324.521 104.875V160.726C324.521 161.032 324.981 161.287 325.899 161.491C326.817 161.593 327.99 161.746 329.418 161.95C330.948 162.052 332.529 162.103 334.162 162.103V167H295.448ZM386.187 167H347.474V162.103C348.8 162.103 350.228 162.052 351.758 161.95C353.289 161.848 354.564 161.695 355.584 161.491C356.706 161.287 357.267 161.032 357.267 160.726V110.384C357.267 106.303 356.808 103.039 355.89 100.591C355.074 98.1424 353.748 96.3572 351.911 95.235C350.177 94.1129 347.933 93.5518 345.179 93.5518C341.914 93.5518 338.905 94.3169 336.151 95.8471C333.498 97.3773 330.999 99.5705 328.653 102.427C326.409 105.181 324.164 108.548 321.92 112.526L319.625 107.935C322.277 103.345 325.083 99.4175 328.041 96.1531C331.101 92.8888 334.519 90.3895 338.293 88.6553C342.067 86.9211 346.403 86.054 351.299 86.054C356.298 86.054 360.633 87.0231 364.306 88.9613C367.978 90.7975 370.784 93.6029 372.722 97.3773C374.66 101.05 375.629 105.691 375.629 111.302V157.054C375.629 158.38 376.088 159.451 377.006 160.267C377.924 160.981 379.149 161.491 380.679 161.797C382.311 162.001 384.096 162.103 386.034 162.103H386.187V167Z" fill="white"/>
<path d="M290.054 127.522C290.054 135.581 288.269 142.721 284.698 148.944C281.128 155.065 276.231 159.859 270.009 163.328C263.786 166.796 256.594 168.53 248.433 168.53C240.272 168.53 233.029 166.796 226.705 163.328C220.482 159.859 215.585 155.065 212.015 148.944C208.547 142.721 206.812 135.581 206.812 127.522C206.812 121.401 207.833 115.841 209.873 110.843C211.913 105.742 214.769 101.356 218.442 97.6833C222.216 94.0109 226.603 91.1546 231.601 89.1144C236.702 87.0741 242.312 86.054 248.433 86.054C254.554 86.054 260.113 87.0741 265.112 89.1144C270.213 91.0526 274.599 93.9089 278.271 97.6833C282.046 101.356 284.953 105.742 286.993 110.843C289.034 115.841 290.054 121.401 290.054 127.522ZM225.94 127.369C225.94 134.815 226.756 141.242 228.388 146.649C230.122 151.953 232.672 156.034 236.039 158.89C239.405 161.644 243.537 163.022 248.433 163.022C253.432 163.022 257.563 161.644 260.827 158.89C264.092 156.034 266.54 151.953 268.172 146.649C269.906 141.344 270.774 134.917 270.774 127.369C270.774 119.82 269.906 113.393 268.172 108.088C266.54 102.682 264.092 98.5504 260.827 95.6941C257.563 92.8378 253.432 91.4096 248.433 91.4096C243.537 91.4096 239.405 92.8888 236.039 95.8471C232.672 98.7034 230.122 102.784 228.388 108.088C226.756 113.393 225.94 119.82 225.94 127.369Z" fill="white"/>
<path d="M150.502 87.5842H202.987V92.9398H150.502V87.5842ZM207.73 52.3903V58.5109C206.914 58.2049 205.639 57.8479 203.905 57.4398C202.273 56.9298 200.181 56.6747 197.631 56.6747C194.163 56.6747 191.357 57.3888 189.215 58.817C187.073 60.1431 185.492 62.2854 184.472 65.2437C183.554 68.202 183.095 72.0785 183.095 76.873V158.89C183.095 159.808 183.707 160.522 184.931 161.032C186.155 161.44 187.838 161.746 189.98 161.95C192.123 162.052 194.469 162.103 197.019 162.103H198.09V167H151.114V162.103H152.185C156.062 162.103 159.122 161.797 161.366 161.185C163.61 160.471 164.733 159.043 164.733 156.901V78.8622C164.733 72.5375 166.008 67.3349 168.558 63.2545C171.108 59.174 174.73 56.1137 179.422 54.0735C184.217 52.0332 189.878 51.0131 196.407 51.0131C198.855 51.0131 201.049 51.1661 202.987 51.4722C205.027 51.6762 206.608 51.9822 207.73 52.3903Z" fill="white"/>
</svg>
